<?xml version="1.0" encoding="UTF-8"?>
<svg width="11px" height="9px" viewBox="0 0 11 9" version="1.1" xmlns="http://www.w3.org/2000/svg" xmlns:xlink="http://www.w3.org/1999/xlink">
    <title>blockquote</title>
    <g id="Page-1" stroke="none" stroke-width="1" fill="none" fill-rule="evenodd">
        <g id="Artboard-Copy" transform="translate(-811.000000, -26.000000)" fill="#000000">
            <g id="blockquote" transform="translate(811.000000, 26.000000)">
                <path d="M3.89941452,0.0805351596 C1.58338277,1.56793955 0.296728195,3.29910455 0.0394415667,5.27409473 C-0.361095435,8.34869715 2.38845492,9.85362879 3.78162309,8.50145695 C5.17479126,7.14931588 4.33967153,5.43300552 3.33087864,4.96386962 C2.32208575,4.49470296 1.70517234,4.65810397 1.81278389,4.03119521 C1.92039544,3.4042557 3.35560561,1.66604782 4.61649677,0.856546961 C4.70015022,0.785410777 4.73198158,0.647382592 4.65143439,0.542692766 C4.59844362,0.473801693 4.49452267,0.338747511 4.33967153,0.137477937 C4.20425752,-0.0385203009 4.07453317,-0.0319356676 3.89941452,0.0805351596 Z" id="Path"></path>
                <path d="M9.99676653,0.0805351596 C7.68076553,1.56793955 6.39410173,3.29910455 6.13680588,5.27409473 C5.73628425,8.34869715 8.48583768,9.85362879 9.87900585,8.50145695 C11.272174,7.14931588 10.4370543,5.43300552 9.4282614,4.96386962 C8.41946851,4.49470296 7.80252435,4.65810397 7.91016666,4.03119521 C8.0177782,3.4042557 9.45298838,1.66604782 10.7138795,0.856546961 C10.797533,0.785410777 10.8293643,0.647382592 10.7487864,0.542692766 C10.6958264,0.473801693 10.5919054,0.338747511 10.4370543,0.137477937 C10.3016403,-0.0385203009 10.1719159,-0.0319356676 9.99676653,0.0805351596 Z" id="Path"></path>
            </g>
        </g>
    </g>
</svg>