<?xml version="1.0" encoding="UTF-8"?>
<svg width="9px" height="13px" viewBox="0 0 9 13" version="1.1" xmlns="http://www.w3.org/2000/svg" xmlns:xlink="http://www.w3.org/1999/xlink">
    <title>bold</title>
    <g id="Page-1" stroke="none" stroke-width="1" fill="none" fill-rule="evenodd">
        <g id="Artboard-Copy" transform="translate(-585.000000, -23.000000)" fill="#1B1B1B" fill-rule="nonzero">
            <path d="M589.016227,36 C589.649087,36 590.263692,35.9277778 590.860041,35.7833333 C591.456389,35.6388889 591.988844,35.4162037 592.457404,35.1152778 C592.925963,34.8143519 593.300203,34.4261574 593.580122,33.9506944 C593.860041,33.4752315 594,32.9125 594,32.2625 C594,31.7689815 593.93002,31.3416667 593.790061,30.9805556 C593.650101,30.6194444 593.458418,30.3125 593.21501,30.0597222 C592.971602,29.8069444 592.685598,29.6083333 592.356998,29.4638889 C592.028398,29.3194444 591.681542,29.2171296 591.31643,29.1569444 L591.31643,29.1569444 L591.31643,29.0486111 C591.730223,28.9523148 592.083164,28.8048611 592.375254,28.60625 C592.667343,28.4076389 592.904665,28.1789352 593.087221,27.9201389 C593.269777,27.6613426 593.400609,27.375463 593.479716,27.0625 C593.558824,26.749537 593.598377,26.4365741 593.598377,26.1236111 C593.598377,25.4976852 593.464503,24.9800926 593.196755,24.5708333 C592.929006,24.1615741 592.573022,23.8425926 592.128803,23.6138889 C591.684584,23.3851852 591.179513,23.2256944 590.61359,23.1354167 C590.047667,23.0451389 589.466531,23 588.870183,23 C588.517241,23 588.161258,23.0060185 587.802231,23.0180556 C587.443205,23.0300926 587.093306,23.0481481 586.752535,23.0722222 C586.411765,23.0962963 586.092292,23.1263889 585.794118,23.1625 C585.495943,23.1986111 585.231237,23.2347222 585,23.2708333 L585,23.2708333 L585,35.7291667 C585.31643,35.8013889 585.666329,35.8555556 586.049696,35.8916667 C586.433063,35.9277778 586.810345,35.9548611 587.181542,35.9729167 C587.552738,35.9909722 587.899594,36 588.22211,36 L588.22211,36 L589.016227,36 Z M588.212982,28.4888889 L587.409736,28.4888889 L587.409736,25.1125 C587.555781,25.0884259 587.762677,25.0703704 588.030426,25.0583333 C588.298174,25.0462963 588.590264,25.0402778 588.906694,25.0402778 C589.186613,25.0402778 589.454361,25.0643519 589.709939,25.1125 C589.965517,25.1606481 590.193712,25.2449074 590.394523,25.3652778 C590.595335,25.4856481 590.756592,25.6481481 590.878296,25.8527778 C591,26.0574074 591.060852,26.3162037 591.060852,26.6291667 C591.060852,27.0986111 590.893509,27.4777778 590.558824,27.7666667 C590.224138,28.0555556 589.825558,28.2722222 589.363083,28.4166667 C589.217039,28.4407407 589.03144,28.4587963 588.806288,28.4708333 C588.581136,28.4828704 588.383367,28.4888889 588.212982,28.4888889 L588.212982,28.4888889 Z M589.034483,33.9597222 C588.912779,33.9597222 588.769777,33.956713 588.605477,33.9506944 C588.441176,33.9446759 588.282961,33.9386574 588.130832,33.9326389 C587.978702,33.9266204 587.8357,33.9175926 587.701826,33.9055556 C587.567951,33.8935185 587.470588,33.875463 587.409736,33.8513889 L587.409736,33.8513889 L587.409736,30.3666667 L588.742394,30.3666667 C589.058824,30.3666667 589.375254,30.3847222 589.691684,30.4208333 C590.008114,30.4569444 590.294118,30.5381944 590.549696,30.6645833 C590.805274,30.7909722 591.01217,30.9685185 591.170385,31.1972222 C591.3286,31.4259259 591.407708,31.7388889 591.407708,32.1361111 C591.407708,32.4490741 591.340771,32.7199074 591.206897,32.9486111 C591.073022,33.1773148 590.896552,33.3668981 590.677485,33.5173611 C590.458418,33.6678241 590.205882,33.7791667 589.919878,33.8513889 C589.633874,33.9236111 589.338742,33.9597222 589.034483,33.9597222 Z" id="bold"></path>
        </g>
    </g>
</svg>