<?xml version="1.0" encoding="UTF-8"?>
<svg width="17px" height="13px" viewBox="0 0 17 13" version="1.1" xmlns="http://www.w3.org/2000/svg" xmlns:xlink="http://www.w3.org/1999/xlink">
    <title>clear</title>
    <g id="Page-1" stroke="none" stroke-width="1" fill="none" fill-rule="evenodd">
        <g id="Artboard-Copy" transform="translate(-837.000000, -23.000000)" fill="#000000" fill-rule="nonzero">
            <g id="clear" transform="translate(837.000000, 23.000000)">
                <path d="M0.791085277,0 L0,1.02793625 L16.2101969,13 L17,11.9720639 L9.80971422,6.6614792 L11.2918769,2.59120355 L14.3869823,2.59120355 L14.3869823,3.55630748 C14.3869823,3.73388661 14.5340293,3.87800879 14.7152122,3.87800879 L15.3716719,3.87800879 C15.5528548,3.87800879 15.6999018,3.73388661 15.6999018,3.55630748 L15.6999018,0.982697003 C15.6999018,0.80511788 15.5528548,0.660995693 15.3716719,0.660995693 L4.8683158,0.660995693 C4.68713291,0.660995693 4.54008592,0.80511788 4.54008592,0.982697003 L4.54008592,2.76964741 L0.791085277,0 Z M5.85300544,2.59120355 L9.32249766,2.59120355 L8.25703262,5.51541828 L5.80941257,3.70710497 C5.83466133,3.66154113 5.85300544,3.61177072 5.85300544,3.55630748 L5.85300544,2.59120355 Z M7.33260402,8.05384236 L6.5094652,10.312035 L5.52477556,10.312035 C5.34359267,10.312035 5.19654568,10.4561572 5.19654568,10.6337363 L5.19654568,11.9205415 C5.19654568,12.0981207 5.34359267,12.2422429 5.52477556,12.2422429 L8.80707435,12.2422429 C8.98825724,12.2422429 9.13530423,12.0981207 9.13530423,11.9205415 L9.13530423,10.6337363 C9.13530423,10.4561572 8.98825724,10.312035 8.80707435,10.312035 L8.47884447,10.312035 L8.88528562,9.19613358 L7.33260402,8.05384236 Z" id="Shape"></path>
            </g>
        </g>
    </g>
</svg>