<?xml version="1.0" encoding="UTF-8"?>
<svg width="13px" height="13px" viewBox="0 0 13 13" version="1.1" xmlns="http://www.w3.org/2000/svg" xmlns:xlink="http://www.w3.org/1999/xlink">
    <title>link</title>
    <g id="Page-1" stroke="none" stroke-width="1" fill="none" fill-rule="evenodd">
        <g id="Artboard-Copy" transform="translate(-673.000000, -23.000000)" fill="#1B1B1B" fill-rule="nonzero">
            <path d="M675.265478,29.4278349 C676.059366,28.6730177 677.160532,28.4286718 678.15361,28.6941371 L678.15361,28.6941371 L674.942585,31.9043185 C674.374978,32.5010444 674.384322,33.4450736 674.97021,34.0304021 C675.565062,34.6255035 676.530058,34.6255035 677.124884,34.0304021 L677.124884,34.0304021 L680.308029,30.8481177 C680.579684,31.8645419 680.316637,32.9941531 679.518737,33.7913107 L679.518737,33.7913107 L678.202335,35.107367 C677.012657,36.2975443 675.082665,36.2975443 673.892988,35.107367 C672.721186,33.9366846 672.702498,32.0486263 673.837738,30.8551998 L673.837738,30.8551998 Z M680.753,27.1705521 C681.051416,26.8868103 681.523555,26.891481 681.816308,27.184361 C682.113937,27.4816832 682.113937,27.9640544 681.816308,28.261402 L681.816308,28.261402 L678.261038,31.815739 C677.963637,32.1132897 677.48114,32.1132897 677.183714,31.815739 C676.890757,31.5230621 676.886085,31.0510475 677.169876,30.7527353 L677.169876,30.7527353 Z M680.853852,23.8375181 C682.047592,22.7025762 683.936146,22.7212588 685.107136,23.8927535 C686.297626,25.0821186 686.297626,27.0116035 685.10711,28.2009685 L685.10711,28.2009685 L683.790708,29.5170248 C682.993341,30.3147409 681.863433,30.5776932 680.846742,30.3061103 L680.846742,30.3061103 L684.029888,27.1238005 C684.62512,26.5291053 684.625146,25.5643883 684.029888,24.9696931 C683.44438,24.3839584 682.500129,24.3746171 681.903246,24.9420753 L681.903246,24.9420753 L678.692221,28.1522567 C678.426712,27.159465 678.671122,26.0585884 679.426112,25.264883 L679.426112,25.264883 Z" id="link"></path>
        </g>
    </g>
</svg>