<?xml version="1.0" encoding="UTF-8"?>
<svg width="17px" height="14px" viewBox="0 0 17 14" version="1.1" xmlns="http://www.w3.org/2000/svg" xmlns:xlink="http://www.w3.org/1999/xlink">
    <title>ordered-list</title>
    <g id="Page-1" stroke="none" stroke-width="1" fill="none" fill-rule="evenodd">
        <g id="Artboard-Copy" transform="translate(-697.000000, -75.000000)" fill="#1B1B1B">
            <g id="ordered-list" transform="translate(697.000000, 75.000000)">
                <rect id="Rectangle" x="4" y="1" width="13" height="2" rx="1"></rect>
                <rect id="Rectangle-Copy" x="4" y="6" width="13" height="2" rx="1"></rect>
                <rect id="Rectangle-Copy-2" x="4" y="11" width="13" height="2" rx="1"></rect>
                <polygon id="1" fill-rule="nonzero" points="3 4 3 3.38202247 2.06636156 3.38202247 2.06636156 0 1.56521739 0 0 1.03370787 0.377574371 1.45505618 0.988558352 1.11235955 1.3180778 0.780898876 1.21510297 1.16292135 1.21510297 3.38202247 0.260869565 3.38202247 0.260869565 4"></polygon>
                <path d="M3,9 L3,8.3837535 L1.63182898,8.3837535 L1.11876485,8.46218487 L1.11876485,8.43417367 L1.49643705,8.20448179 C1.65320665,8.05882353 1.81353919,7.89915966 1.97743468,7.7254902 C2.14133017,7.55182073 2.29097387,7.37161531 2.4263658,7.18487395 C2.56175772,6.99813259 2.67339667,6.8076564 2.76128266,6.61344538 C2.84916865,6.41923436 2.89311164,6.22689076 2.89311164,6.03641457 C2.89311164,5.86461251 2.85748219,5.71428571 2.78622328,5.58543417 C2.71496437,5.45658263 2.6175772,5.34920635 2.49406176,5.26330532 C2.37054632,5.1774043 2.22327791,5.11204482 2.05225653,5.06722689 C1.88123515,5.02240896 1.6935867,5 1.48931116,5 C1.17102138,5 0.894299287,5.03641457 0.659144893,5.1092437 C0.423990499,5.18207283 0.213776722,5.27824463 0.0285035629,5.3977591 L0.0285035629,5.3977591 L0.399049881,5.91316527 C0.508313539,5.83473389 0.642517815,5.77030812 0.801662708,5.71988796 C0.960807601,5.66946779 1.11638955,5.6442577 1.26840855,5.6442577 C1.51068884,5.6442577 1.68764846,5.69374416 1.79928741,5.79271709 C1.91092637,5.89169001 1.96674584,6.01774043 1.96674584,6.17086835 C1.96674584,6.29785247 1.93467933,6.43230626 1.87054632,6.57422969 C1.8064133,6.71615313 1.71971496,6.8627451 1.61045131,7.0140056 C1.50118765,7.16526611 1.37767221,7.3155929 1.23990499,7.46498599 C1.10213777,7.61437908 0.960807601,7.75910364 0.815914489,7.89915966 C0.671021378,8.03921569 0.527315914,8.17180205 0.3847981,8.29691877 C0.242280285,8.42203548 0.114014252,8.53127918 0,8.62464986 L0,8.62464986 L0,9 L3,9 Z" id="2" fill-rule="nonzero"></path>
                <path d="M1.19285714,14 C1.4452381,14 1.68095238,13.9738562 1.9,13.9215686 C2.11904762,13.869281 2.31071429,13.7889823 2.475,13.6806723 C2.63928571,13.5723623 2.76785714,13.4379085 2.86071429,13.2773109 C2.95357143,13.1167134 3,12.9262372 3,12.7058824 C3,12.5303455 2.96666667,12.3753501 2.9,12.2408964 C2.83333333,12.1064426 2.74404762,11.9934641 2.63214286,11.9019608 C2.5202381,11.8104575 2.38928571,11.7404295 2.23928571,11.6918768 C2.08928571,11.643324 1.93095238,11.6134454 1.76428571,11.6022409 L1.76428571,11.6022409 L1.46428571,11.6358543 L1.46428571,11.6078431 L1.77857143,11.4565826 L2.78571429,10.3977591 L2.78571429,10 L0.0571428571,10 L0.0571428571,10.6162465 L1.25714286,10.6162465 L1.82142857,10.5658263 L1.41428571,10.8179272 L0.55,11.7422969 L0.55,12.1288515 L1.06428571,12.1288515 C1.41190476,12.1288515 1.66666667,12.1792717 1.82857143,12.280112 C1.99047619,12.3809524 2.07142857,12.5378151 2.07142857,12.7507003 C2.07142857,12.9262372 1.99404762,13.0756303 1.83928571,13.1988796 C1.68452381,13.3221289 1.45952381,13.3837535 1.16428571,13.3837535 C0.978571429,13.3837535 0.810714286,13.3688142 0.660714286,13.3389356 C0.510714286,13.309057 0.373809524,13.2698413 0.25,13.2212885 L0.25,13.2212885 L0,13.8263305 C0.138095238,13.8823529 0.319047619,13.9253035 0.542857143,13.9551821 C0.766666667,13.9850607 0.983333333,14 1.19285714,14 Z" id="3" fill-rule="nonzero"></path>
            </g>
        </g>
    </g>
</svg>