<?xml version="1.0" encoding="UTF-8"?>
<svg width="15px" height="13px" viewBox="0 0 15 13" version="1.1" xmlns="http://www.w3.org/2000/svg" xmlns:xlink="http://www.w3.org/1999/xlink">
    <title>preformatted</title>
    <g id="Page-1" stroke="none" stroke-width="1" fill="none" fill-rule="evenodd">
        <g id="Artboard-Copy" transform="translate(-750.000000, -23.000000)" fill="#000000" fill-rule="nonzero">
            <g id="preformatted" transform="translate(750.000000, 23.000000)">
                <path d="M3.7908808,9.87235543 L4.67240407,8.77080395 L1.83460436,6.50070522 L4.67240407,4.23060649 L3.7908808,3.12905501 L0.264787712,5.94992948 C0.0974304449,6.08375765 -6.26359957e-16,6.28641934 -6.26359957e-16,6.50070522 C-6.26359957e-16,6.71499109 0.0974304449,6.91765278 0.264787712,7.05148096 L3.7908808,9.87235543 Z M10.314153,3.12905501 L9.43262974,4.23060649 L12.2704295,6.50070522 L9.43262974,8.77080395 L10.314153,9.87235543 L13.8402461,7.05148096 C14.0076034,6.91765278 14.1050338,6.71499109 14.1050338,6.50070522 C14.1050338,6.28641934 14.0076034,6.08375765 13.8402461,5.94992948 L10.314153,3.12905501 Z M9.15124751,0.30606488 L6.33037304,13 L4.95308108,12.6939351 L7.77395555,0 L9.15124751,0.30606488 Z" id="Shape"></path>
            </g>
        </g>
    </g>
</svg>