<?xml version="1.0" encoding="UTF-8"?>
<svg width="12px" height="12px" viewBox="0 0 12 12" version="1.1" xmlns="http://www.w3.org/2000/svg" xmlns:xlink="http://www.w3.org/1999/xlink">
    <title>search</title>
    <g id="Page-1" stroke="none" stroke-width="1" fill="none" fill-rule="evenodd">
        <g id="search" fill="#A1A9B8" fill-rule="nonzero">
            <path d="M9.44273687,8.39354578 C9.47046549,8.4145296 9.49744469,8.43776169 9.52292504,8.46324204 L11.7711917,10.7115087 C11.9660089,10.8996694 12.0441407,11.1783072 11.975557,11.4403272 C11.9069733,11.7023473 11.7023473,11.9069733 11.4403272,11.975557 C11.1783072,12.0441407 10.8996694,11.9660089 10.7115087,11.7711917 L8.46324204,9.52292504 C8.43815859,9.49786282 8.41486903,9.4710673 8.39354578,9.44273687 C6.19118103,11.0945104 3.08663624,10.7628631 1.28289472,8.68313165 C-0.520846798,6.60340021 -0.410111965,3.48315564 1.53652184,1.53652184 C3.48315564,-0.410111965 6.60340021,-0.520846798 8.68313165,1.28289472 C10.7628631,3.08663624 11.0945104,6.19118103 9.44273687,8.39354578 Z M5.24597251,8.99308354 C7.31544479,8.99308354 8.99308354,7.31544479 8.99308354,5.24597251 C8.99308354,3.17650023 7.31544479,1.49886148 5.24597251,1.49886148 C3.17650023,1.49886148 1.49886148,3.17650023 1.49886148,5.24597251 C1.49886148,7.31544479 3.17650023,8.99308354 5.24597251,8.99308354 L5.24597251,8.99308354 Z" id="Shape"></path>
        </g>
    </g>
</svg>