<?xml version="1.0" encoding="UTF-8"?>
<svg width="16px" height="13px" viewBox="0 0 16 13" version="1.1" xmlns="http://www.w3.org/2000/svg" xmlns:xlink="http://www.w3.org/1999/xlink">
    <title>strike</title>
    <g id="Page-1" stroke="none" stroke-width="1" fill="none" fill-rule="evenodd">
        <g id="Artboard-Copy" transform="translate(-776.000000, -21.000000)" fill="#000000" fill-rule="nonzero">
            <g id="strike" transform="translate(776.000000, 21.000000)">
                <path d="M15.686914,5.82959641 L8.93694795,5.82959641 C8.76029352,5.79426553 8.57480636,5.75893464 8.37871993,5.72360375 C8.09783938,5.67237396 7.98654709,5.65117543 7.83462427,5.62114418 C6.92838701,5.44448974 6.3825248,5.2678353 5.94795489,5.016986 C5.32789781,4.65484441 5.02581873,4.16374507 5.02581873,3.51365675 C5.02581873,2.86003533 5.29433347,2.31770621 5.80309825,1.94143226 C6.30479685,1.57045794 7.01848077,1.37437152 7.86642207,1.37437152 C8.83448838,1.37437152 9.58173665,1.62875391 10.0887349,2.13045251 C10.3466504,2.3848349 10.5356706,2.69751325 10.650496,3.05965484 C10.6734611,3.13208316 10.6999592,3.23630928 10.7264574,3.37409974 C10.7423563,3.45889387 10.8183177,3.51895638 10.9013453,3.51895638 L12.1873896,3.51895638 C12.2863161,3.51895638 12.3658106,3.43769534 12.3658106,3.3405354 L12.3658106,3.32286996 C12.3534448,3.20274494 12.3428455,3.10911809 12.3304797,3.04022286 C12.2015219,2.27177606 11.8358473,1.59695611 11.2758527,1.09172442 C10.491507,0.37627395 9.33795353,0 7.94238348,0 C6.6651719,0 5.51515152,0.319744531 4.70430765,0.899171083 C4.25207229,1.22421525 3.90229651,1.62698736 3.66911265,2.09512162 C3.43062916,2.57385514 3.31050414,3.12678353 3.31050414,3.73624134 C3.31050414,4.25737193 3.41119717,4.69900802 3.61611632,5.08764778 C3.7627395,5.36499524 3.96235902,5.60877837 4.21850795,5.82959641 L0.141323549,5.82959641 C0.0635955972,5.82959641 0,5.89319201 0,5.97091996 L0,7.03084658 C0,7.10857453 0.0635955972,7.17217013 0.141323549,7.17217013 L7.79399375,7.17217013 C7.83109118,7.17923631 7.86288898,7.18630249 7.89821987,7.19336866 C8.44408208,7.30289442 8.77265933,7.37708928 9.07473842,7.46188341 C9.48104362,7.57670879 9.79195543,7.69683381 10.0498709,7.84169045 C10.6822938,8.19853241 10.9914391,8.71083028 10.9914391,9.41391493 C10.9914391,10.0375051 10.7176247,10.5939666 10.2212257,10.9826063 C9.68242968,11.4048104 8.88571817,11.6256285 7.91588531,11.6256285 C7.14390542,11.6256285 6.49028401,11.4754722 5.96915342,11.1839924 C5.45508901,10.8960457 5.10178013,10.4809077 4.91452643,9.95624405 C4.90039408,9.91738008 4.88449518,9.86438375 4.86682973,9.79725506 C4.8456312,9.71952711 4.77320288,9.66476423 4.69547493,9.66476423 L3.28753907,9.66476423 C3.18861258,9.66476423 3.10911809,9.74602528 3.10911809,9.84318522 L3.10911809,9.86085066 C3.11265118,9.90148118 3.11618426,9.93504552 3.11971735,9.96154369 C3.23454274,10.8236173 3.6549803,11.5302351 4.36866422,12.0601984 C5.20070662,12.6749558 6.37192553,13 7.75689632,13 C9.24432667,13 10.491507,12.6502242 11.3641799,11.9877701 C11.805816,11.6538932 12.1449925,11.2422884 12.3728767,10.7688545 C12.6025275,10.2901209 12.720886,9.74602528 12.720886,9.15246637 C12.720886,8.59070526 12.6184264,8.12080446 12.4064411,7.71449925 C12.3039815,7.51664628 12.1750238,7.33469221 12.0213344,7.17040359 L15.686914,7.17040359 C15.7646419,7.17040359 15.8282375,7.10680799 15.8282375,7.02908004 L15.8282375,5.96915342 C15.8272705,5.89179333 15.7642801,5.82959037 15.686914,5.82959641 L15.686914,5.82959641 Z" id="Path"></path>
            </g>
        </g>
    </g>
</svg>