<?xml version="1.0" encoding="UTF-8"?>
<svg width="9px" height="13px" viewBox="0 0 9 13" version="1.1" xmlns="http://www.w3.org/2000/svg" xmlns:xlink="http://www.w3.org/1999/xlink">
    <title>underline</title>
    <g id="Page-1" stroke="none" stroke-width="1" fill="none" fill-rule="evenodd">
        <g id="Artboard-Copy" transform="translate(-645.000000, -23.000000)" fill="#1B1B1B" fill-rule="nonzero">
            <path d="M654,34.7 L654,36 L645,36 L645,34.7 L654,34.7 Z M646.548804,23 L646.548804,29.512835 L646.554246,29.7652562 C646.572388,30.1747532 646.635885,30.5282244 646.744737,30.82567 C646.875359,31.1826046 647.071292,31.471086 647.332536,31.6911142 C647.59378,31.9111425 647.920335,32.0700517 648.312201,32.167842 C648.704067,32.2656323 649.161244,32.3145275 649.683732,32.3145275 C650.691388,32.3145275 651.412919,32.0969441 651.848325,31.6617772 C652.283732,31.2266102 652.501435,30.5102962 652.501435,29.512835 L652.501435,29.512835 L652.501435,23 L653.994258,23 L653.994258,29.8502116 L653.987975,30.1091563 C653.962841,30.6168677 653.862303,31.06351 653.686364,31.4490832 C653.4811,31.8989187 653.188756,32.2680771 652.80933,32.5565585 C652.429904,32.84504 651.972727,33.0577339 651.437799,33.1946403 C650.902871,33.3315468 650.311962,33.4 649.665072,33.4 C648.122488,33.4 646.95933,33.1261871 646.175598,32.5785614 C645.391866,32.0309356 645,31.1997179 645,30.0849083 L645,30.0849083 L645,23 L646.548804,23 Z" id="underline"></path>
        </g>
    </g>
</svg>